G04 #@! TF.FileFunction,Legend,Bot*
%FSLAX46Y46*%
G04 Gerber Fmt 4.6, Leading zero omitted, Abs format (unit mm)*
G04 Created by KiCad (PCBNEW 4.0.7) date 03/19/18 10:43:22*
%MOMM*%
%LPD*%
G01*
G04 APERTURE LIST*
%ADD10C,0.100000*%
%ADD11C,0.500000*%
%ADD12C,1.000000*%
%ADD13C,0.300000*%
%ADD14C,0.200000*%
%ADD15C,2.600000*%
%ADD16R,3.650000X4.970000*%
%ADD17R,1.900000X1.600000*%
%ADD18C,1.300000*%
%ADD19R,1.600000X1.200000*%
%ADD20R,1.100000X2.100000*%
%ADD21R,6.800000X2.400000*%
%ADD22R,4.300000X2.400000*%
G04 APERTURE END LIST*
D10*
D11*
X186000000Y-57000000D02*
X188000000Y-57000000D01*
X187000000Y-52000000D02*
X187000000Y-54000000D01*
X186000000Y-53000000D02*
X188000000Y-53000000D01*
D12*
X118460000Y-79520000D02*
X122540000Y-79520000D01*
X156460000Y-79520000D02*
X160540000Y-79520000D01*
X194460000Y-79520000D02*
X198540000Y-79520000D01*
D13*
X176992000Y-76508000D02*
X176992000Y-75492000D01*
X138992000Y-76508000D02*
X138992000Y-75492000D01*
X100992000Y-76508000D02*
X100992000Y-75492000D01*
D11*
X122464286Y-69821429D02*
X122107143Y-69940476D01*
X121988095Y-70059524D01*
X121869047Y-70297619D01*
X121869047Y-70654762D01*
X121988095Y-70892857D01*
X122107143Y-71011905D01*
X122345238Y-71130952D01*
X123297619Y-71130952D01*
X123297619Y-68630952D01*
X122464286Y-68630952D01*
X122226190Y-68750000D01*
X122107143Y-68869048D01*
X121988095Y-69107143D01*
X121988095Y-69345238D01*
X122107143Y-69583333D01*
X122226190Y-69702381D01*
X122464286Y-69821429D01*
X123297619Y-69821429D01*
X121154762Y-68630952D02*
X119726190Y-68630952D01*
X120440476Y-71130952D02*
X120440476Y-68630952D01*
X117821428Y-69464286D02*
X117821428Y-71130952D01*
X118416666Y-68511905D02*
X119011905Y-70297619D01*
X117464285Y-70297619D01*
X160464286Y-69821429D02*
X160107143Y-69940476D01*
X159988095Y-70059524D01*
X159869047Y-70297619D01*
X159869047Y-70654762D01*
X159988095Y-70892857D01*
X160107143Y-71011905D01*
X160345238Y-71130952D01*
X161297619Y-71130952D01*
X161297619Y-68630952D01*
X160464286Y-68630952D01*
X160226190Y-68750000D01*
X160107143Y-68869048D01*
X159988095Y-69107143D01*
X159988095Y-69345238D01*
X160107143Y-69583333D01*
X160226190Y-69702381D01*
X160464286Y-69821429D01*
X161297619Y-69821429D01*
X159154762Y-68630952D02*
X157726190Y-68630952D01*
X158440476Y-71130952D02*
X158440476Y-68630952D01*
X155702381Y-68630952D02*
X156892857Y-68630952D01*
X157011905Y-69821429D01*
X156892857Y-69702381D01*
X156654762Y-69583333D01*
X156059524Y-69583333D01*
X155821428Y-69702381D01*
X155702381Y-69821429D01*
X155583333Y-70059524D01*
X155583333Y-70654762D01*
X155702381Y-70892857D01*
X155821428Y-71011905D01*
X156059524Y-71130952D01*
X156654762Y-71130952D01*
X156892857Y-71011905D01*
X157011905Y-70892857D01*
X198464286Y-69821429D02*
X198107143Y-69940476D01*
X197988095Y-70059524D01*
X197869047Y-70297619D01*
X197869047Y-70654762D01*
X197988095Y-70892857D01*
X198107143Y-71011905D01*
X198345238Y-71130952D01*
X199297619Y-71130952D01*
X199297619Y-68630952D01*
X198464286Y-68630952D01*
X198226190Y-68750000D01*
X198107143Y-68869048D01*
X197988095Y-69107143D01*
X197988095Y-69345238D01*
X198107143Y-69583333D01*
X198226190Y-69702381D01*
X198464286Y-69821429D01*
X199297619Y-69821429D01*
X197154762Y-68630952D02*
X195726190Y-68630952D01*
X196440476Y-71130952D02*
X196440476Y-68630952D01*
X193821428Y-68630952D02*
X194297619Y-68630952D01*
X194535714Y-68750000D01*
X194654762Y-68869048D01*
X194892857Y-69226190D01*
X195011905Y-69702381D01*
X195011905Y-70654762D01*
X194892857Y-70892857D01*
X194773809Y-71011905D01*
X194535714Y-71130952D01*
X194059524Y-71130952D01*
X193821428Y-71011905D01*
X193702381Y-70892857D01*
X193583333Y-70654762D01*
X193583333Y-70059524D01*
X193702381Y-69821429D01*
X193821428Y-69702381D01*
X194059524Y-69583333D01*
X194535714Y-69583333D01*
X194773809Y-69702381D01*
X194892857Y-69821429D01*
X195011905Y-70059524D01*
D14*
X178238095Y-78452381D02*
X178238095Y-77452381D01*
X178000000Y-77452381D01*
X177857142Y-77500000D01*
X177761904Y-77595238D01*
X177714285Y-77690476D01*
X177666666Y-77880952D01*
X177666666Y-78023810D01*
X177714285Y-78214286D01*
X177761904Y-78309524D01*
X177857142Y-78404762D01*
X178000000Y-78452381D01*
X178238095Y-78452381D01*
X176809523Y-77452381D02*
X177000000Y-77452381D01*
X177095238Y-77500000D01*
X177142857Y-77547619D01*
X177238095Y-77690476D01*
X177285714Y-77880952D01*
X177285714Y-78261905D01*
X177238095Y-78357143D01*
X177190476Y-78404762D01*
X177095238Y-78452381D01*
X176904761Y-78452381D01*
X176809523Y-78404762D01*
X176761904Y-78357143D01*
X176714285Y-78261905D01*
X176714285Y-78023810D01*
X176761904Y-77928571D01*
X176809523Y-77880952D01*
X176904761Y-77833333D01*
X177095238Y-77833333D01*
X177190476Y-77880952D01*
X177238095Y-77928571D01*
X177285714Y-78023810D01*
X140238095Y-78452381D02*
X140238095Y-77452381D01*
X140000000Y-77452381D01*
X139857142Y-77500000D01*
X139761904Y-77595238D01*
X139714285Y-77690476D01*
X139666666Y-77880952D01*
X139666666Y-78023810D01*
X139714285Y-78214286D01*
X139761904Y-78309524D01*
X139857142Y-78404762D01*
X140000000Y-78452381D01*
X140238095Y-78452381D01*
X138761904Y-77452381D02*
X139238095Y-77452381D01*
X139285714Y-77928571D01*
X139238095Y-77880952D01*
X139142857Y-77833333D01*
X138904761Y-77833333D01*
X138809523Y-77880952D01*
X138761904Y-77928571D01*
X138714285Y-78023810D01*
X138714285Y-78261905D01*
X138761904Y-78357143D01*
X138809523Y-78404762D01*
X138904761Y-78452381D01*
X139142857Y-78452381D01*
X139238095Y-78404762D01*
X139285714Y-78357143D01*
X102238095Y-78452381D02*
X102238095Y-77452381D01*
X102000000Y-77452381D01*
X101857142Y-77500000D01*
X101761904Y-77595238D01*
X101714285Y-77690476D01*
X101666666Y-77880952D01*
X101666666Y-78023810D01*
X101714285Y-78214286D01*
X101761904Y-78309524D01*
X101857142Y-78404762D01*
X102000000Y-78452381D01*
X102238095Y-78452381D01*
X100809523Y-77785714D02*
X100809523Y-78452381D01*
X101047619Y-77404762D02*
X101285714Y-78119048D01*
X100666666Y-78119048D01*
X178333333Y-50404762D02*
X178190476Y-50452381D01*
X177952380Y-50452381D01*
X177857142Y-50404762D01*
X177809523Y-50357143D01*
X177761904Y-50261905D01*
X177761904Y-50166667D01*
X177809523Y-50071429D01*
X177857142Y-50023810D01*
X177952380Y-49976190D01*
X178142857Y-49928571D01*
X178238095Y-49880952D01*
X178285714Y-49833333D01*
X178333333Y-49738095D01*
X178333333Y-49642857D01*
X178285714Y-49547619D01*
X178238095Y-49500000D01*
X178142857Y-49452381D01*
X177904761Y-49452381D01*
X177761904Y-49500000D01*
X177428571Y-49452381D02*
X177190476Y-50452381D01*
X176999999Y-49738095D01*
X176809523Y-50452381D01*
X176571428Y-49452381D01*
X176238095Y-49547619D02*
X176190476Y-49500000D01*
X176095238Y-49452381D01*
X175857142Y-49452381D01*
X175761904Y-49500000D01*
X175714285Y-49547619D01*
X175666666Y-49642857D01*
X175666666Y-49738095D01*
X175714285Y-49880952D01*
X176285714Y-50452381D01*
X175666666Y-50452381D01*
X177809524Y-52452381D02*
X177476191Y-53452381D01*
X177142857Y-52452381D01*
X176809524Y-53452381D02*
X176809524Y-52452381D01*
X176571429Y-52452381D01*
X176428571Y-52500000D01*
X176333333Y-52595238D01*
X176285714Y-52690476D01*
X176238095Y-52880952D01*
X176238095Y-53023810D01*
X176285714Y-53214286D01*
X176333333Y-53309524D01*
X176428571Y-53404762D01*
X176571429Y-53452381D01*
X176809524Y-53452381D01*
X175809524Y-53452381D02*
X175809524Y-52452381D01*
X175571429Y-52452381D01*
X175428571Y-52500000D01*
X175333333Y-52595238D01*
X175285714Y-52690476D01*
X175238095Y-52880952D01*
X175238095Y-53023810D01*
X175285714Y-53214286D01*
X175333333Y-53309524D01*
X175428571Y-53404762D01*
X175571429Y-53452381D01*
X175809524Y-53452381D01*
X174857143Y-52547619D02*
X174809524Y-52500000D01*
X174714286Y-52452381D01*
X174476190Y-52452381D01*
X174380952Y-52500000D01*
X174333333Y-52547619D01*
X174285714Y-52642857D01*
X174285714Y-52738095D01*
X174333333Y-52880952D01*
X174904762Y-53452381D01*
X174285714Y-53452381D01*
X177238095Y-56500000D02*
X177333333Y-56452381D01*
X177476190Y-56452381D01*
X177619048Y-56500000D01*
X177714286Y-56595238D01*
X177761905Y-56690476D01*
X177809524Y-56880952D01*
X177809524Y-57023810D01*
X177761905Y-57214286D01*
X177714286Y-57309524D01*
X177619048Y-57404762D01*
X177476190Y-57452381D01*
X177380952Y-57452381D01*
X177238095Y-57404762D01*
X177190476Y-57357143D01*
X177190476Y-57023810D01*
X177380952Y-57023810D01*
X176761905Y-57452381D02*
X176761905Y-56452381D01*
X176190476Y-57452381D01*
X176190476Y-56452381D01*
X175714286Y-57452381D02*
X175714286Y-56452381D01*
X175476191Y-56452381D01*
X175333333Y-56500000D01*
X175238095Y-56595238D01*
X175190476Y-56690476D01*
X175142857Y-56880952D01*
X175142857Y-57023810D01*
X175190476Y-57214286D01*
X175238095Y-57309524D01*
X175333333Y-57404762D01*
X175476191Y-57452381D01*
X175714286Y-57452381D01*
X174761905Y-56547619D02*
X174714286Y-56500000D01*
X174619048Y-56452381D01*
X174380952Y-56452381D01*
X174285714Y-56500000D01*
X174238095Y-56547619D01*
X174190476Y-56642857D01*
X174190476Y-56738095D01*
X174238095Y-56880952D01*
X174809524Y-57452381D01*
X174190476Y-57452381D01*
%LPC*%
D15*
X101500000Y-62500000D03*
X139500000Y-62500000D03*
X177500000Y-62500000D03*
D16*
X135840000Y-70000000D03*
X105160000Y-70000000D03*
X173840000Y-70000000D03*
X143160000Y-70000000D03*
X211840000Y-70000000D03*
X181160000Y-70000000D03*
D17*
X179050000Y-76000000D03*
X175950000Y-76000000D03*
X141050000Y-76000000D03*
X137950000Y-76000000D03*
X103050000Y-76000000D03*
X99950000Y-76000000D03*
D18*
X175500000Y-45750000D03*
X178500000Y-45750000D03*
D19*
X173250000Y-44650000D03*
X173250000Y-46850000D03*
X180750000Y-44650000D03*
X180750000Y-46850000D03*
D20*
X174750000Y-47600000D03*
X177750000Y-47600000D03*
X179250000Y-47600000D03*
D18*
X178500000Y-45750000D03*
X175500000Y-45750000D03*
D21*
X181450000Y-53000000D03*
D22*
X171800000Y-53000000D03*
D21*
X181450000Y-57000000D03*
D22*
X171800000Y-57000000D03*
M02*
